<mxfile host="app.diagrams.net" agent="Mozilla/5.0 (Windows NT 10.0; Win64; x64) AppleWebKit/537.36 (KHTML, like Gecko) Chrome/131.0.0.0 Safari/537.36" version="26.0.6">
  <diagram name="Page-1" id="929967ad-93f9-6ef4-fab6-5d389245f69c">
    <mxGraphModel dx="1434" dy="738" grid="1" gridSize="10" guides="1" tooltips="1" connect="1" arrows="1" fold="1" page="1" pageScale="1.5" pageWidth="1169" pageHeight="826" background="none" math="0" shadow="0">
      <root>
        <mxCell id="0" style=";html=1;" />
        <mxCell id="1" style=";html=1;" parent="0" />
        <mxCell id="1672d66443f91eb5-1" value="&lt;p style=&quot;margin: 0px ; margin-top: 4px ; margin-left: 10px ; text-align: left&quot;&gt;&lt;b&gt;req&lt;/b&gt;&amp;nbsp;[package] HSUVRequirements[HSUV Specification]&lt;/p&gt;" style="html=1;strokeWidth=1;shape=mxgraph.sysml.package;html=1;overflow=fill;whiteSpace=wrap;fillColor=none;gradientColor=none;fontSize=12;align=center;labelX=327.64;" parent="1" vertex="1">
          <mxGeometry x="280" y="280" width="1320" height="920" as="geometry" />
        </mxCell>
        <mxCell id="1672d66443f91eb5-23" value="Title" style="text;strokeColor=none;fillColor=none;html=1;fontSize=24;fontStyle=1;verticalAlign=middle;align=center;" parent="1" vertex="1">
          <mxGeometry x="120" y="40" width="1510" height="40" as="geometry" />
        </mxCell>
        <mxCell id="hHE1MnVIrnI3_nqOoeLc-1" value="" style="fontStyle=1;align=center;verticalAlign=middle;childLayout=stackLayout;horizontal=1;horizontalStack=0;resizeParent=1;resizeParentMax=0;resizeLast=0;marginBottom=0;" vertex="1" parent="1">
          <mxGeometry x="1060" y="310" width="200" height="130" as="geometry" />
        </mxCell>
        <mxCell id="hHE1MnVIrnI3_nqOoeLc-2" value="&amp;lt;&amp;lt;requirement&amp;gt;&amp;gt;" style="html=1;align=center;spacing=0;verticalAlign=middle;strokeColor=none;fillColor=none;whiteSpace=wrap;spacingTop=3;" vertex="1" parent="hHE1MnVIrnI3_nqOoeLc-1">
          <mxGeometry width="200" height="16" as="geometry" />
        </mxCell>
        <mxCell id="hHE1MnVIrnI3_nqOoeLc-3" value="Deplacer le pénétrométre" style="html=1;align=center;spacing=0;verticalAlign=middle;strokeColor=none;fillColor=none;whiteSpace=wrap;fontStyle=1" vertex="1" parent="hHE1MnVIrnI3_nqOoeLc-1">
          <mxGeometry y="16" width="200" height="18" as="geometry" />
        </mxCell>
        <mxCell id="hHE1MnVIrnI3_nqOoeLc-4" value="" style="line;strokeWidth=0.25;fillColor=none;align=left;verticalAlign=middle;spacingTop=-1;spacingLeft=3;spacingRight=3;rotatable=0;labelPosition=right;points=[];portConstraint=eastwest;" vertex="1" parent="hHE1MnVIrnI3_nqOoeLc-1">
          <mxGeometry y="34" width="200" height="8" as="geometry" />
        </mxCell>
        <mxCell id="hHE1MnVIrnI3_nqOoeLc-5" value="text=&quot; &quot;" style="html=1;align=left;spacing=0;verticalAlign=middle;strokeColor=none;fillColor=none;whiteSpace=wrap;spacingLeft=10;" vertex="1" parent="hHE1MnVIrnI3_nqOoeLc-1">
          <mxGeometry y="42" width="200" height="16" as="geometry" />
        </mxCell>
        <mxCell id="hHE1MnVIrnI3_nqOoeLc-6" value="Id=&quot;5&quot;" style="html=1;align=left;spacing=0;verticalAlign=middle;strokeColor=none;fillColor=none;whiteSpace=wrap;spacingLeft=10;" vertex="1" parent="hHE1MnVIrnI3_nqOoeLc-1">
          <mxGeometry y="58" width="200" height="32" as="geometry" />
        </mxCell>
        <mxCell id="hHE1MnVIrnI3_nqOoeLc-7" value="" style="html=1;align=center;spacing=0;verticalAlign=middle;strokeColor=none;fillColor=none;whiteSpace=wrap;" vertex="1" parent="hHE1MnVIrnI3_nqOoeLc-1">
          <mxGeometry y="90" width="200" height="40" as="geometry" />
        </mxCell>
        <mxCell id="hHE1MnVIrnI3_nqOoeLc-8" value="" style="fontStyle=1;align=center;verticalAlign=middle;childLayout=stackLayout;horizontal=1;horizontalStack=0;resizeParent=1;resizeParentMax=0;resizeLast=0;marginBottom=0;" vertex="1" parent="1">
          <mxGeometry x="320" y="478" width="200" height="120" as="geometry" />
        </mxCell>
        <mxCell id="hHE1MnVIrnI3_nqOoeLc-9" value="&amp;lt;&amp;lt;requirement&amp;gt;&amp;gt;" style="html=1;align=center;spacing=0;verticalAlign=middle;strokeColor=none;fillColor=none;whiteSpace=wrap;spacingTop=3;" vertex="1" parent="hHE1MnVIrnI3_nqOoeLc-8">
          <mxGeometry width="200" height="16" as="geometry" />
        </mxCell>
        <mxCell id="hHE1MnVIrnI3_nqOoeLc-10" value="Se deplacer en suivant une trajectoire" style="html=1;align=center;spacing=0;verticalAlign=middle;strokeColor=none;fillColor=none;whiteSpace=wrap;fontStyle=1" vertex="1" parent="hHE1MnVIrnI3_nqOoeLc-8">
          <mxGeometry y="16" width="200" height="34" as="geometry" />
        </mxCell>
        <mxCell id="hHE1MnVIrnI3_nqOoeLc-11" value="" style="line;strokeWidth=0.25;fillColor=none;align=left;verticalAlign=middle;spacingTop=-1;spacingLeft=3;spacingRight=3;rotatable=0;labelPosition=right;points=[];portConstraint=eastwest;" vertex="1" parent="hHE1MnVIrnI3_nqOoeLc-8">
          <mxGeometry y="50" width="200" height="8" as="geometry" />
        </mxCell>
        <mxCell id="hHE1MnVIrnI3_nqOoeLc-12" value="text=&quot;le robot devra suivre une trajectoire selon l&#39;itineraire donné&quot;" style="html=1;align=left;spacing=0;verticalAlign=middle;strokeColor=none;fillColor=none;whiteSpace=wrap;spacingLeft=10;" vertex="1" parent="hHE1MnVIrnI3_nqOoeLc-8">
          <mxGeometry y="58" width="200" height="28" as="geometry" />
        </mxCell>
        <mxCell id="hHE1MnVIrnI3_nqOoeLc-13" value="Id=&quot;5.2&quot;" style="html=1;align=left;spacing=0;verticalAlign=middle;strokeColor=none;fillColor=none;whiteSpace=wrap;spacingLeft=10;" vertex="1" parent="hHE1MnVIrnI3_nqOoeLc-8">
          <mxGeometry y="86" width="200" height="30" as="geometry" />
        </mxCell>
        <mxCell id="hHE1MnVIrnI3_nqOoeLc-14" value="" style="html=1;align=center;spacing=0;verticalAlign=middle;strokeColor=none;fillColor=none;whiteSpace=wrap;" vertex="1" parent="hHE1MnVIrnI3_nqOoeLc-8">
          <mxGeometry y="116" width="200" height="4" as="geometry" />
        </mxCell>
        <mxCell id="hHE1MnVIrnI3_nqOoeLc-15" value="" style="fontStyle=1;align=center;verticalAlign=middle;childLayout=stackLayout;horizontal=1;horizontalStack=0;resizeParent=1;resizeParentMax=0;resizeLast=0;marginBottom=0;" vertex="1" parent="1">
          <mxGeometry x="800" y="478" width="200" height="120" as="geometry" />
        </mxCell>
        <mxCell id="hHE1MnVIrnI3_nqOoeLc-16" value="&amp;lt;&amp;lt;requirement&amp;gt;&amp;gt;" style="html=1;align=center;spacing=0;verticalAlign=middle;strokeColor=none;fillColor=none;whiteSpace=wrap;spacingTop=3;" vertex="1" parent="hHE1MnVIrnI3_nqOoeLc-15">
          <mxGeometry width="200" height="16" as="geometry" />
        </mxCell>
        <mxCell id="hHE1MnVIrnI3_nqOoeLc-17" value="Eviter les obstacles" style="html=1;align=center;spacing=0;verticalAlign=middle;strokeColor=none;fillColor=none;whiteSpace=wrap;fontStyle=1" vertex="1" parent="hHE1MnVIrnI3_nqOoeLc-15">
          <mxGeometry y="16" width="200" height="18" as="geometry" />
        </mxCell>
        <mxCell id="hHE1MnVIrnI3_nqOoeLc-18" value="" style="line;strokeWidth=0.25;fillColor=none;align=left;verticalAlign=middle;spacingTop=-1;spacingLeft=3;spacingRight=3;rotatable=0;labelPosition=right;points=[];portConstraint=eastwest;" vertex="1" parent="hHE1MnVIrnI3_nqOoeLc-15">
          <mxGeometry y="34" width="200" height="8" as="geometry" />
        </mxCell>
        <mxCell id="hHE1MnVIrnI3_nqOoeLc-19" value="text=&quot;le robot devra eviter les eventuels obstacles pendant son trajet&quot;" style="html=1;align=left;spacing=0;verticalAlign=middle;strokeColor=none;fillColor=none;whiteSpace=wrap;spacingLeft=10;" vertex="1" parent="hHE1MnVIrnI3_nqOoeLc-15">
          <mxGeometry y="42" width="200" height="38" as="geometry" />
        </mxCell>
        <mxCell id="hHE1MnVIrnI3_nqOoeLc-20" value="Id=&quot;5.6&quot;" style="html=1;align=left;spacing=0;verticalAlign=middle;strokeColor=none;fillColor=none;whiteSpace=wrap;spacingLeft=10;" vertex="1" parent="hHE1MnVIrnI3_nqOoeLc-15">
          <mxGeometry y="80" width="200" height="32" as="geometry" />
        </mxCell>
        <mxCell id="hHE1MnVIrnI3_nqOoeLc-21" value="" style="html=1;align=center;spacing=0;verticalAlign=middle;strokeColor=none;fillColor=none;whiteSpace=wrap;" vertex="1" parent="hHE1MnVIrnI3_nqOoeLc-15">
          <mxGeometry y="112" width="200" height="8" as="geometry" />
        </mxCell>
        <mxCell id="hHE1MnVIrnI3_nqOoeLc-22" value="" style="fontStyle=1;align=center;verticalAlign=middle;childLayout=stackLayout;horizontal=1;horizontalStack=0;resizeParent=1;resizeParentMax=0;resizeLast=0;marginBottom=0;" vertex="1" parent="1">
          <mxGeometry x="1120" y="478" width="200" height="120" as="geometry" />
        </mxCell>
        <mxCell id="hHE1MnVIrnI3_nqOoeLc-23" value="&amp;lt;&amp;lt;requirement&amp;gt;&amp;gt;" style="html=1;align=center;spacing=0;verticalAlign=middle;strokeColor=none;fillColor=none;whiteSpace=wrap;spacingTop=3;" vertex="1" parent="hHE1MnVIrnI3_nqOoeLc-22">
          <mxGeometry width="200" height="16" as="geometry" />
        </mxCell>
        <mxCell id="hHE1MnVIrnI3_nqOoeLc-24" value="Mesurer la valeur de penetrométrie" style="html=1;align=center;spacing=0;verticalAlign=middle;strokeColor=none;fillColor=none;whiteSpace=wrap;fontStyle=1" vertex="1" parent="hHE1MnVIrnI3_nqOoeLc-22">
          <mxGeometry y="16" width="200" height="18" as="geometry" />
        </mxCell>
        <mxCell id="hHE1MnVIrnI3_nqOoeLc-25" value="" style="line;strokeWidth=0.25;fillColor=none;align=left;verticalAlign=middle;spacingTop=-1;spacingLeft=3;spacingRight=3;rotatable=0;labelPosition=right;points=[];portConstraint=eastwest;" vertex="1" parent="hHE1MnVIrnI3_nqOoeLc-22">
          <mxGeometry y="34" width="200" height="8" as="geometry" />
        </mxCell>
        <mxCell id="hHE1MnVIrnI3_nqOoeLc-26" value="text=&quot; mesurer la valeur de penetrométrie sur le terrain&quot;" style="html=1;align=left;spacing=0;verticalAlign=middle;strokeColor=none;fillColor=none;whiteSpace=wrap;spacingLeft=10;" vertex="1" parent="hHE1MnVIrnI3_nqOoeLc-22">
          <mxGeometry y="42" width="200" height="28" as="geometry" />
        </mxCell>
        <mxCell id="hHE1MnVIrnI3_nqOoeLc-27" value="Id=&quot;5.7&quot;" style="html=1;align=left;spacing=0;verticalAlign=middle;strokeColor=none;fillColor=none;whiteSpace=wrap;spacingLeft=10;" vertex="1" parent="hHE1MnVIrnI3_nqOoeLc-22">
          <mxGeometry y="70" width="200" height="32" as="geometry" />
        </mxCell>
        <mxCell id="hHE1MnVIrnI3_nqOoeLc-28" value="" style="html=1;align=center;spacing=0;verticalAlign=middle;strokeColor=none;fillColor=none;whiteSpace=wrap;" vertex="1" parent="hHE1MnVIrnI3_nqOoeLc-22">
          <mxGeometry y="102" width="200" height="18" as="geometry" />
        </mxCell>
        <mxCell id="hHE1MnVIrnI3_nqOoeLc-30" value="" style="fontStyle=1;align=center;verticalAlign=middle;childLayout=stackLayout;horizontal=1;horizontalStack=0;resizeParent=1;resizeParentMax=0;resizeLast=0;marginBottom=0;" vertex="1" parent="1">
          <mxGeometry x="1380" y="478" width="200" height="120" as="geometry" />
        </mxCell>
        <mxCell id="hHE1MnVIrnI3_nqOoeLc-31" value="&amp;lt;&amp;lt;requirement&amp;gt;&amp;gt;" style="html=1;align=center;spacing=0;verticalAlign=middle;strokeColor=none;fillColor=none;whiteSpace=wrap;spacingTop=3;" vertex="1" parent="hHE1MnVIrnI3_nqOoeLc-30">
          <mxGeometry width="200" height="16" as="geometry" />
        </mxCell>
        <mxCell id="hHE1MnVIrnI3_nqOoeLc-32" value="Alimenter les circuits electroniques" style="html=1;align=center;spacing=0;verticalAlign=middle;strokeColor=none;fillColor=none;whiteSpace=wrap;fontStyle=1" vertex="1" parent="hHE1MnVIrnI3_nqOoeLc-30">
          <mxGeometry y="16" width="200" height="34" as="geometry" />
        </mxCell>
        <mxCell id="hHE1MnVIrnI3_nqOoeLc-33" value="" style="line;strokeWidth=0.25;fillColor=none;align=left;verticalAlign=middle;spacingTop=-1;spacingLeft=3;spacingRight=3;rotatable=0;labelPosition=right;points=[];portConstraint=eastwest;" vertex="1" parent="hHE1MnVIrnI3_nqOoeLc-30">
          <mxGeometry y="50" width="200" height="8" as="geometry" />
        </mxCell>
        <mxCell id="hHE1MnVIrnI3_nqOoeLc-34" value="text=&quot;les circuits electroniques du robot devront être alimentés&quot;" style="html=1;align=left;spacing=0;verticalAlign=middle;strokeColor=none;fillColor=none;whiteSpace=wrap;spacingLeft=10;" vertex="1" parent="hHE1MnVIrnI3_nqOoeLc-30">
          <mxGeometry y="58" width="200" height="22" as="geometry" />
        </mxCell>
        <mxCell id="hHE1MnVIrnI3_nqOoeLc-35" value="Id=&quot;62j32.&quot;" style="html=1;align=left;spacing=0;verticalAlign=middle;strokeColor=none;fillColor=none;whiteSpace=wrap;spacingLeft=10;" vertex="1" parent="hHE1MnVIrnI3_nqOoeLc-30">
          <mxGeometry y="80" width="200" height="30" as="geometry" />
        </mxCell>
        <mxCell id="hHE1MnVIrnI3_nqOoeLc-36" value="" style="html=1;align=center;spacing=0;verticalAlign=middle;strokeColor=none;fillColor=none;whiteSpace=wrap;" vertex="1" parent="hHE1MnVIrnI3_nqOoeLc-30">
          <mxGeometry y="110" width="200" height="10" as="geometry" />
        </mxCell>
        <mxCell id="hHE1MnVIrnI3_nqOoeLc-38" value="" style="fontStyle=1;align=center;verticalAlign=middle;childLayout=stackLayout;horizontal=1;horizontalStack=0;resizeParent=1;resizeParentMax=0;resizeLast=0;marginBottom=0;" vertex="1" parent="1">
          <mxGeometry x="800" y="800" width="200" height="120" as="geometry" />
        </mxCell>
        <mxCell id="hHE1MnVIrnI3_nqOoeLc-39" value="&amp;lt;&amp;lt;requirement&amp;gt;&amp;gt;" style="html=1;align=center;spacing=0;verticalAlign=middle;strokeColor=none;fillColor=none;whiteSpace=wrap;spacingTop=3;" vertex="1" parent="hHE1MnVIrnI3_nqOoeLc-38">
          <mxGeometry width="200" height="16" as="geometry" />
        </mxCell>
        <mxCell id="hHE1MnVIrnI3_nqOoeLc-40" value="Distance des obstacles" style="html=1;align=center;spacing=0;verticalAlign=middle;strokeColor=none;fillColor=none;whiteSpace=wrap;fontStyle=1" vertex="1" parent="hHE1MnVIrnI3_nqOoeLc-38">
          <mxGeometry y="16" width="200" height="18" as="geometry" />
        </mxCell>
        <mxCell id="hHE1MnVIrnI3_nqOoeLc-41" value="" style="line;strokeWidth=0.25;fillColor=none;align=left;verticalAlign=middle;spacingTop=-1;spacingLeft=3;spacingRight=3;rotatable=0;labelPosition=right;points=[];portConstraint=eastwest;" vertex="1" parent="hHE1MnVIrnI3_nqOoeLc-38">
          <mxGeometry y="34" width="200" height="8" as="geometry" />
        </mxCell>
        <mxCell id="hHE1MnVIrnI3_nqOoeLc-42" value="text=&quot;le robot devra detecter des obstacles à un rayon de ... m&quot;" style="html=1;align=left;spacing=0;verticalAlign=middle;strokeColor=none;fillColor=none;whiteSpace=wrap;spacingLeft=10;" vertex="1" parent="hHE1MnVIrnI3_nqOoeLc-38">
          <mxGeometry y="42" width="200" height="28" as="geometry" />
        </mxCell>
        <mxCell id="hHE1MnVIrnI3_nqOoeLc-43" value="Id=&quot;5.6.1.1&quot;" style="html=1;align=left;spacing=0;verticalAlign=middle;strokeColor=none;fillColor=none;whiteSpace=wrap;spacingLeft=10;" vertex="1" parent="hHE1MnVIrnI3_nqOoeLc-38">
          <mxGeometry y="70" width="200" height="16" as="geometry" />
        </mxCell>
        <mxCell id="hHE1MnVIrnI3_nqOoeLc-44" value="" style="html=1;align=center;spacing=0;verticalAlign=middle;strokeColor=none;fillColor=none;whiteSpace=wrap;" vertex="1" parent="hHE1MnVIrnI3_nqOoeLc-38">
          <mxGeometry y="86" width="200" height="34" as="geometry" />
        </mxCell>
        <mxCell id="hHE1MnVIrnI3_nqOoeLc-45" value="" style="fontStyle=1;align=center;verticalAlign=middle;childLayout=stackLayout;horizontal=1;horizontalStack=0;resizeParent=1;resizeParentMax=0;resizeLast=0;marginBottom=0;" vertex="1" parent="1">
          <mxGeometry x="1120" y="642" width="200" height="120" as="geometry" />
        </mxCell>
        <mxCell id="hHE1MnVIrnI3_nqOoeLc-46" value="&amp;lt;&amp;lt;requirement&amp;gt;&amp;gt;" style="html=1;align=center;spacing=0;verticalAlign=middle;strokeColor=none;fillColor=none;whiteSpace=wrap;spacingTop=3;" vertex="1" parent="hHE1MnVIrnI3_nqOoeLc-45">
          <mxGeometry width="200" height="16" as="geometry" />
        </mxCell>
        <mxCell id="hHE1MnVIrnI3_nqOoeLc-47" value="Precision des valeurs des penetrométrie" style="html=1;align=center;spacing=0;verticalAlign=middle;strokeColor=none;fillColor=none;whiteSpace=wrap;fontStyle=1" vertex="1" parent="hHE1MnVIrnI3_nqOoeLc-45">
          <mxGeometry y="16" width="200" height="24" as="geometry" />
        </mxCell>
        <mxCell id="hHE1MnVIrnI3_nqOoeLc-48" value="" style="line;strokeWidth=0.25;fillColor=none;align=left;verticalAlign=middle;spacingTop=-1;spacingLeft=3;spacingRight=3;rotatable=0;labelPosition=right;points=[];portConstraint=eastwest;" vertex="1" parent="hHE1MnVIrnI3_nqOoeLc-45">
          <mxGeometry y="40" width="200" height="8" as="geometry" />
        </mxCell>
        <mxCell id="hHE1MnVIrnI3_nqOoeLc-49" value="text=&quot;le penetrométre devra avoir une précision de 0.1 &quot;" style="html=1;align=left;spacing=0;verticalAlign=middle;strokeColor=none;fillColor=none;whiteSpace=wrap;spacingLeft=10;" vertex="1" parent="hHE1MnVIrnI3_nqOoeLc-45">
          <mxGeometry y="48" width="200" height="38" as="geometry" />
        </mxCell>
        <mxCell id="hHE1MnVIrnI3_nqOoeLc-50" value="Id=&quot;5.7.1&quot;" style="html=1;align=left;spacing=0;verticalAlign=middle;strokeColor=none;fillColor=none;whiteSpace=wrap;spacingLeft=10;" vertex="1" parent="hHE1MnVIrnI3_nqOoeLc-45">
          <mxGeometry y="86" width="200" height="16" as="geometry" />
        </mxCell>
        <mxCell id="hHE1MnVIrnI3_nqOoeLc-51" value="" style="html=1;align=center;spacing=0;verticalAlign=middle;strokeColor=none;fillColor=none;whiteSpace=wrap;" vertex="1" parent="hHE1MnVIrnI3_nqOoeLc-45">
          <mxGeometry y="102" width="200" height="18" as="geometry" />
        </mxCell>
        <mxCell id="hHE1MnVIrnI3_nqOoeLc-52" value="" style="fontStyle=1;align=center;verticalAlign=middle;childLayout=stackLayout;horizontal=1;horizontalStack=0;resizeParent=1;resizeParentMax=0;resizeLast=0;marginBottom=0;" vertex="1" parent="1">
          <mxGeometry x="800" y="640" width="200" height="122" as="geometry" />
        </mxCell>
        <mxCell id="hHE1MnVIrnI3_nqOoeLc-53" value="&amp;lt;&amp;lt;requirement&amp;gt;&amp;gt;" style="html=1;align=center;spacing=0;verticalAlign=middle;strokeColor=none;fillColor=none;whiteSpace=wrap;spacingTop=3;" vertex="1" parent="hHE1MnVIrnI3_nqOoeLc-52">
          <mxGeometry width="200" height="16" as="geometry" />
        </mxCell>
        <mxCell id="hHE1MnVIrnI3_nqOoeLc-54" value="Detecter les obstacles" style="html=1;align=center;spacing=0;verticalAlign=middle;strokeColor=none;fillColor=none;whiteSpace=wrap;fontStyle=1" vertex="1" parent="hHE1MnVIrnI3_nqOoeLc-52">
          <mxGeometry y="16" width="200" height="18" as="geometry" />
        </mxCell>
        <mxCell id="hHE1MnVIrnI3_nqOoeLc-55" value="" style="line;strokeWidth=0.25;fillColor=none;align=left;verticalAlign=middle;spacingTop=-1;spacingLeft=3;spacingRight=3;rotatable=0;labelPosition=right;points=[];portConstraint=eastwest;" vertex="1" parent="hHE1MnVIrnI3_nqOoeLc-52">
          <mxGeometry y="34" width="200" height="8" as="geometry" />
        </mxCell>
        <mxCell id="hHE1MnVIrnI3_nqOoeLc-56" value="text=&quot;Le robot devra detecter les obstacles se trouvant dans son trajet&quot;" style="html=1;align=left;spacing=0;verticalAlign=middle;strokeColor=none;fillColor=none;whiteSpace=wrap;spacingLeft=10;" vertex="1" parent="hHE1MnVIrnI3_nqOoeLc-52">
          <mxGeometry y="42" width="200" height="38" as="geometry" />
        </mxCell>
        <mxCell id="hHE1MnVIrnI3_nqOoeLc-57" value="Id=&quot;5.6.1" style="html=1;align=left;spacing=0;verticalAlign=middle;strokeColor=none;fillColor=none;whiteSpace=wrap;spacingLeft=10;" vertex="1" parent="hHE1MnVIrnI3_nqOoeLc-52">
          <mxGeometry y="80" width="200" height="16" as="geometry" />
        </mxCell>
        <mxCell id="hHE1MnVIrnI3_nqOoeLc-58" value="" style="html=1;align=center;spacing=0;verticalAlign=middle;strokeColor=none;fillColor=none;whiteSpace=wrap;" vertex="1" parent="hHE1MnVIrnI3_nqOoeLc-52">
          <mxGeometry y="96" width="200" height="26" as="geometry" />
        </mxCell>
        <mxCell id="hHE1MnVIrnI3_nqOoeLc-59" value="" style="fontStyle=1;align=center;verticalAlign=middle;childLayout=stackLayout;horizontal=1;horizontalStack=0;resizeParent=1;resizeParentMax=0;resizeLast=0;marginBottom=0;" vertex="1" parent="1">
          <mxGeometry x="290" y="640" width="200" height="116" as="geometry" />
        </mxCell>
        <mxCell id="hHE1MnVIrnI3_nqOoeLc-60" value="&amp;lt;&amp;lt;requirement&amp;gt;&amp;gt;" style="html=1;align=center;spacing=0;verticalAlign=middle;strokeColor=none;fillColor=none;whiteSpace=wrap;spacingTop=3;" vertex="1" parent="hHE1MnVIrnI3_nqOoeLc-59">
          <mxGeometry width="200" height="16" as="geometry" />
        </mxCell>
        <mxCell id="hHE1MnVIrnI3_nqOoeLc-61" value="Changer de trajectoire" style="html=1;align=center;spacing=0;verticalAlign=middle;strokeColor=none;fillColor=none;whiteSpace=wrap;fontStyle=1" vertex="1" parent="hHE1MnVIrnI3_nqOoeLc-59">
          <mxGeometry y="16" width="200" height="18" as="geometry" />
        </mxCell>
        <mxCell id="hHE1MnVIrnI3_nqOoeLc-62" value="" style="line;strokeWidth=0.25;fillColor=none;align=left;verticalAlign=middle;spacingTop=-1;spacingLeft=3;spacingRight=3;rotatable=0;labelPosition=right;points=[];portConstraint=eastwest;" vertex="1" parent="hHE1MnVIrnI3_nqOoeLc-59">
          <mxGeometry y="34" width="200" height="8" as="geometry" />
        </mxCell>
        <mxCell id="hHE1MnVIrnI3_nqOoeLc-63" value="text=&quot;le robot devra pouvoir tourner selon l&#39;itineraire&quot;" style="html=1;align=left;spacing=0;verticalAlign=middle;strokeColor=none;fillColor=none;whiteSpace=wrap;spacingLeft=10;" vertex="1" parent="hHE1MnVIrnI3_nqOoeLc-59">
          <mxGeometry y="42" width="200" height="28" as="geometry" />
        </mxCell>
        <mxCell id="hHE1MnVIrnI3_nqOoeLc-64" value="Id=&quot;5.2.1&quot;" style="html=1;align=left;spacing=0;verticalAlign=middle;strokeColor=none;fillColor=none;whiteSpace=wrap;spacingLeft=10;" vertex="1" parent="hHE1MnVIrnI3_nqOoeLc-59">
          <mxGeometry y="70" width="200" height="20" as="geometry" />
        </mxCell>
        <mxCell id="hHE1MnVIrnI3_nqOoeLc-65" value="" style="html=1;align=center;spacing=0;verticalAlign=middle;strokeColor=none;fillColor=none;whiteSpace=wrap;" vertex="1" parent="hHE1MnVIrnI3_nqOoeLc-59">
          <mxGeometry y="90" width="200" height="26" as="geometry" />
        </mxCell>
        <mxCell id="hHE1MnVIrnI3_nqOoeLc-66" value="" style="fontStyle=1;align=center;verticalAlign=middle;childLayout=stackLayout;horizontal=1;horizontalStack=0;resizeParent=1;resizeParentMax=0;resizeLast=0;marginBottom=0;" vertex="1" parent="1">
          <mxGeometry x="520" y="642" width="200" height="112" as="geometry" />
        </mxCell>
        <mxCell id="hHE1MnVIrnI3_nqOoeLc-67" value="&amp;lt;&amp;lt;requirement&amp;gt;&amp;gt;" style="html=1;align=center;spacing=0;verticalAlign=middle;strokeColor=none;fillColor=none;whiteSpace=wrap;spacingTop=3;" vertex="1" parent="hHE1MnVIrnI3_nqOoeLc-66">
          <mxGeometry width="200" height="16" as="geometry" />
        </mxCell>
        <mxCell id="hHE1MnVIrnI3_nqOoeLc-68" value="Changer de direction" style="html=1;align=center;spacing=0;verticalAlign=middle;strokeColor=none;fillColor=none;whiteSpace=wrap;fontStyle=1" vertex="1" parent="hHE1MnVIrnI3_nqOoeLc-66">
          <mxGeometry y="16" width="200" height="18" as="geometry" />
        </mxCell>
        <mxCell id="hHE1MnVIrnI3_nqOoeLc-69" value="" style="line;strokeWidth=0.25;fillColor=none;align=left;verticalAlign=middle;spacingTop=-1;spacingLeft=3;spacingRight=3;rotatable=0;labelPosition=right;points=[];portConstraint=eastwest;" vertex="1" parent="hHE1MnVIrnI3_nqOoeLc-66">
          <mxGeometry y="34" width="200" height="8" as="geometry" />
        </mxCell>
        <mxCell id="hHE1MnVIrnI3_nqOoeLc-70" value="text=&quot;le robot devra pouvoir avancer ou reculer selon l&#39;itineraire&quot;" style="html=1;align=left;spacing=0;verticalAlign=middle;strokeColor=none;fillColor=none;whiteSpace=wrap;spacingLeft=10;" vertex="1" parent="hHE1MnVIrnI3_nqOoeLc-66">
          <mxGeometry y="42" width="200" height="28" as="geometry" />
        </mxCell>
        <mxCell id="hHE1MnVIrnI3_nqOoeLc-71" value="Id=&quot;5.2.2&quot;" style="html=1;align=left;spacing=0;verticalAlign=middle;strokeColor=none;fillColor=none;whiteSpace=wrap;spacingLeft=10;" vertex="1" parent="hHE1MnVIrnI3_nqOoeLc-66">
          <mxGeometry y="70" width="200" height="16" as="geometry" />
        </mxCell>
        <mxCell id="hHE1MnVIrnI3_nqOoeLc-72" value="" style="html=1;align=center;spacing=0;verticalAlign=middle;strokeColor=none;fillColor=none;whiteSpace=wrap;" vertex="1" parent="hHE1MnVIrnI3_nqOoeLc-66">
          <mxGeometry y="86" width="200" height="26" as="geometry" />
        </mxCell>
        <mxCell id="hHE1MnVIrnI3_nqOoeLc-83" value="" style="fontStyle=1;align=center;verticalAlign=middle;childLayout=stackLayout;horizontal=1;horizontalStack=0;resizeParent=1;resizeParentMax=0;resizeLast=0;marginBottom=0;" vertex="1" parent="1">
          <mxGeometry x="1120" y="800" width="200" height="100" as="geometry" />
        </mxCell>
        <mxCell id="hHE1MnVIrnI3_nqOoeLc-84" value="&amp;lt;&amp;lt;requirement&amp;gt;&amp;gt;" style="html=1;align=center;spacing=0;verticalAlign=middle;strokeColor=none;fillColor=none;whiteSpace=wrap;spacingTop=3;" vertex="1" parent="hHE1MnVIrnI3_nqOoeLc-83">
          <mxGeometry width="200" height="16" as="geometry" />
        </mxCell>
        <mxCell id="hHE1MnVIrnI3_nqOoeLc-85" value="Requirement Name" style="html=1;align=center;spacing=0;verticalAlign=middle;strokeColor=none;fillColor=none;whiteSpace=wrap;fontStyle=1" vertex="1" parent="hHE1MnVIrnI3_nqOoeLc-83">
          <mxGeometry y="16" width="200" height="18" as="geometry" />
        </mxCell>
        <mxCell id="hHE1MnVIrnI3_nqOoeLc-86" value="" style="line;strokeWidth=0.25;fillColor=none;align=left;verticalAlign=middle;spacingTop=-1;spacingLeft=3;spacingRight=3;rotatable=0;labelPosition=right;points=[];portConstraint=eastwest;" vertex="1" parent="hHE1MnVIrnI3_nqOoeLc-83">
          <mxGeometry y="34" width="200" height="8" as="geometry" />
        </mxCell>
        <mxCell id="hHE1MnVIrnI3_nqOoeLc-87" value="text=&quot;The system shall do&quot;" style="html=1;align=left;spacing=0;verticalAlign=middle;strokeColor=none;fillColor=none;whiteSpace=wrap;spacingLeft=10;" vertex="1" parent="hHE1MnVIrnI3_nqOoeLc-83">
          <mxGeometry y="42" width="200" height="16" as="geometry" />
        </mxCell>
        <mxCell id="hHE1MnVIrnI3_nqOoeLc-88" value="Id=&quot;62j32.&quot;" style="html=1;align=left;spacing=0;verticalAlign=middle;strokeColor=none;fillColor=none;whiteSpace=wrap;spacingLeft=10;" vertex="1" parent="hHE1MnVIrnI3_nqOoeLc-83">
          <mxGeometry y="58" width="200" height="16" as="geometry" />
        </mxCell>
        <mxCell id="hHE1MnVIrnI3_nqOoeLc-89" value="" style="html=1;align=center;spacing=0;verticalAlign=middle;strokeColor=none;fillColor=none;whiteSpace=wrap;" vertex="1" parent="hHE1MnVIrnI3_nqOoeLc-83">
          <mxGeometry y="74" width="200" height="26" as="geometry" />
        </mxCell>
      </root>
    </mxGraphModel>
  </diagram>
</mxfile>
